<svg width="18" height="18" viewBox="0 0 24 26" fill="none" xmlns="http://www.w3.org/2000/svg">
    <g id="add_shopping_cart_24px_outlined 1">
        <g id="add shopping cart 24px">
            <path id="icon/action/add shopping cart 24px" fill-rule="evenodd" clip-rule="evenodd"
                d="M13.92 10H11.92V6.88313H8.92004V4.80521H11.92V1.68832H13.92V4.80521H16.92V6.88313H13.92V10ZM5.93005 21.4286C5.93005 20.2857 6.82007 19.3507 7.92004 19.3507C9.02002 19.3507 9.92004 20.2857 9.92004 21.4286C9.92004 22.5714 9.02002 23.5065 7.92004 23.5065C6.82007 23.5065 5.93005 22.5714 5.93005 21.4286ZM17.92 19.3507C16.8201 19.3507 15.9301 20.2857 15.9301 21.4286C15.9301 22.5714 16.8201 23.5065 17.92 23.5065C19.02 23.5065 19.92 22.5714 19.92 21.4286C19.92 20.2857 19.02 19.3507 17.92 19.3507ZM16.4701 14.1559H9.02002L7.92004 16.2338H19.92V18.3117H7.92004C6.40002 18.3117 5.44006 16.6182 6.17004 15.226L7.52002 12.6909L3.92004 4.80521H1.92004V2.72729H5.19006L9.45007 12.0779H16.4701L20.3401 4.80521L22.0801 5.8026L18.2201 13.0857C17.88 13.7299 17.2201 14.1559 16.4701 14.1559Z"
                fill="#3e8aad" />
        </g>
    </g>
</svg>