<svg xmlns="http://www.w3.org/2000/svg" width="16" height="16" viewBox="0 0 16 16" fill="none">
    <path fill-rule="evenodd" clip-rule="evenodd"
        d="M10.3168 9.2971H10.8105L13.9293 12.4221L12.998 13.3534L9.87301 10.2346V9.74085L9.70426 9.56585C8.99176 10.1784 8.06676 10.5471 7.06051 10.5471C4.81679 10.5471 2.99802 8.72835 2.99802 6.4846C2.99802 4.24086 4.81679 2.4221 7.06051 2.4221C9.30426 2.4221 11.123 4.24086 11.123 6.4846C11.123 7.49085 10.7543 8.41585 10.1418 9.12835L10.3168 9.2971ZM4.24802 6.4846C4.24802 8.04085 5.50427 9.2971 7.06051 9.2971C8.61676 9.2971 9.87301 8.04085 9.87301 6.4846C9.87301 4.92836 8.61676 3.6721 7.06051 3.6721C5.50427 3.6721 4.24802 4.92836 4.24802 6.4846Z"
        fill="black" fill-opacity="0.54" />
</svg>